# xmcd
#
# Track frame offsets:
#	150
#	12280
#	22328
#	33255
#	46163
#	54080
#	65370
#	75173
#	85573
#	96688
#	106870
#	117025
#	129538
#	141575
#	149893
#	160413
#	169478
#	181193
#
# Disc length: 2547 seconds
#
# Revision: 5
# Processed by: cddbd v1.5.2PL0 Copyright (c) Steve Scherf et al.
# Submitted via: audiograbber 1.83.01
#
DISCID=f309f112
DTITLE=Johnny Cash - Ballad of a Teenage Queen (18 Gr Hits)
DYEAR=1993
DGENRE=Country
TTITLE0=You're The Nearest Thing To Heaven
TTITLE1=Rock Island Line
TTITLE2=Cold Cold Heart
TTITLE3=Folsom Prison Blues
TTITLE4=Hey Good Lookin'
TTITLE5=I Love You Because
TTITLE6=Just About Time
TTITLE7=Straight As In Love
TTITLE8=I Just Thought You'd Like To Know
TTITLE9=Goodbye Little Darling
TTITLE10=I Could Never Be Ashamed Of You
TTITLE11=Nex In Line
TTITLE12=Port Of Lonely Hearts
TTITLE13=Sugartime
TTITLE14=There You Go
TTITLE15=Two-Timin' Woman
TTITLE16=Big River
TTITLE17=Ballad Of A Teenage Queen
EXTD=
EXTT0=
EXTT1=
EXTT2=
EXTT3=
EXTT4=
EXTT5=
EXTT6=
EXTT7=
EXTT8=
EXTT9=
EXTT10=
EXTT11=
EXTT12=
EXTT13=
EXTT14=
EXTT15=
EXTT16=
EXTT17=
PLAYORDER=
